<svg xmlns="http://www.w3.org/2000/svg" version="1.1" xmlns:xlink="http://www.w3.org/1999/xlink" xmlns:svgjs="http://svgjs.dev/svgjs" width="2000" height="363" viewBox="0 0 2000 363"><g transform="matrix(1,0,0,1,-1.2121212121212466,-1.1445336814565508)"><svg viewBox="0 0 396 72" data-background-color="#31c48d" preserveAspectRatio="xMidYMid meet" height="363" width="2000" xmlns="http://www.w3.org/2000/svg" xmlns:xlink="http://www.w3.org/1999/xlink"><g id="tight-bounds" transform="matrix(1,0,0,1,0.2400000000000091,0.22701494508228848)"><svg viewBox="0 0 395.52 71.54597010983542" height="71.54597010983542" width="395.52"><g><svg viewBox="0 0 668.4989393122622 120.92537704918031" height="71.54597010983542" width="395.52"><g transform="matrix(1,0,0,1,272.97893931226224,0)"><svg viewBox="0 0 395.52 120.92537704918031" height="120.92537704918031" width="395.52"><g id="textblocktransform"><svg viewBox="0 0 395.52 120.92537704918031" height="120.92537704918031" width="395.52" id="textblock"><g><svg viewBox="0 0 395.52 120.92537704918031" height="120.92537704918031" width="395.52"><g transform="matrix(1,0,0,1,0,0)"><svg width="395.52" viewBox="3.6 -36.7 121.99000000000001 37.300000000000004" height="120.92537704918031" data-palette-color="#a9f700"><path d="M11.8 0L3.6 0 3.6-32.5 12.4-32.5 19.6-18 22.7-10.7 22.9-10.7Q22.75-12 22.55-13.55 22.35-15.1 22.2-16.73 22.05-18.35 21.93-19.98 21.8-21.6 21.8-23.1L21.8-23.1 21.8-32.5 30-32.5 30 0 21.2 0 14-14.55 10.9-21.8 10.7-21.8Q11-19 11.4-15.7 11.8-12.4 11.8-9.4L11.8-9.4 11.8 0ZM45.1 0L36.5 0 36.5-25 45.1-25 45.1 0ZM40.8-28.1L40.8-28.1Q38.7-28.1 37.35-29.3 36-30.5 36-32.4L36-32.4Q36-34.3 37.35-35.5 38.7-36.7 40.8-36.7L40.8-36.7Q42.9-36.7 44.25-35.5 45.6-34.3 45.6-32.4L45.6-32.4Q45.6-30.5 44.25-29.3 42.9-28.1 40.8-28.1ZM59.3 0L50.9 0 50.9-34.8 59.3-34.8 59.3-16.3 59.5-16.3 66.4-25 75.7-25 66.8-14.6 76.2 0 66.9 0 61.9-8.9 59.3-6 59.3 0ZM89.29 0.6L89.29 0.6Q86.54 0.6 84.19-0.28 81.84-1.15 80.12-2.83 78.39-4.5 77.39-6.95 76.39-9.4 76.39-12.5L76.39-12.5Q76.39-15.55 77.42-17.98 78.44-20.4 80.12-22.1 81.79-23.8 83.94-24.7 86.09-25.6 88.39-25.6L88.39-25.6Q91.14-25.6 93.19-24.65 95.24-23.7 96.59-22.05 97.94-20.4 98.62-18.2 99.29-16 99.29-13.5L99.29-13.5Q99.29-12.35 99.17-11.35 99.04-10.35 98.94-9.9L98.94-9.9 84.69-9.9Q85.29-7.65 86.84-6.78 88.39-5.9 90.49-5.9L90.49-5.9Q91.79-5.9 93.02-6.28 94.24-6.65 95.59-7.4L95.59-7.4 98.39-2.3Q96.34-0.85 93.87-0.13 91.39 0.6 89.29 0.6ZM84.59-15.5L84.59-15.5 91.99-15.5Q91.99-16.95 91.27-18.03 90.54-19.1 88.59-19.1L88.59-19.1Q87.14-19.1 86.07-18.25 84.99-17.4 84.59-15.5ZM115.59 0.6L115.59 0.6Q112.84 0.6 110.49-0.28 108.14-1.15 106.42-2.83 104.69-4.5 103.69-6.95 102.69-9.4 102.69-12.5L102.69-12.5Q102.69-15.55 103.72-17.98 104.74-20.4 106.42-22.1 108.09-23.8 110.24-24.7 112.39-25.6 114.69-25.6L114.69-25.6Q117.44-25.6 119.49-24.65 121.54-23.7 122.89-22.05 124.24-20.4 124.92-18.2 125.59-16 125.59-13.5L125.59-13.5Q125.59-12.35 125.47-11.35 125.34-10.35 125.24-9.9L125.24-9.9 110.99-9.9Q111.59-7.65 113.14-6.78 114.69-5.9 116.79-5.9L116.79-5.9Q118.09-5.9 119.32-6.28 120.54-6.65 121.89-7.4L121.89-7.4 124.69-2.3Q122.64-0.85 120.17-0.13 117.69 0.6 115.59 0.6ZM110.89-15.5L110.89-15.5 118.29-15.5Q118.29-16.95 117.57-18.03 116.84-19.1 114.89-19.1L114.89-19.1Q113.44-19.1 112.37-18.25 111.29-17.4 110.89-15.5Z" opacity="1" transform="matrix(1,0,0,1,0,0)" fill="#ffffff" class="wordmark-text-0" data-fill-palette-color="primary" id="text-0"></path></svg></g></svg></g></svg></g></svg></g><g transform="matrix(1,0,0,1,0,3.531836705043929)"><svg viewBox="0 0 244.43135999999996 113.86170363909245" height="113.86170363909245" width="244.43135999999996"><g><svg xmlns="http://www.w3.org/2000/svg" xmlns:xlink="http://www.w3.org/1999/xlink" version="1.1" x="0" y="0" viewBox="6.5810000000000155 29.312 90.616 42.21100000000001" enable-background="new 0 0 100 100" xml:space="preserve" height="113.86170363909245" width="244.43135999999996" class="icon-icon-0" data-fill-palette-color="accent" id="icon-0"><path fill="#ffffff" d="M90.284 29.312c-2.006 0-2.771 1.886-3.655 4.07-1.244 3.067-2.54 5.82-4.722 5.82-2.551 0-6.381-2.715-9.457-4.897-3.293-2.335-5.893-4.179-8.229-4.179-2.588 0-7.169 2.063-15.042 5.71-9.955 4.612-23.589 10.928-32.198 10.928-7.146 0-10.4 4.667-10.4 9.004 0 4.495 3.051 9.233 8.729 10.065v3.548c0 1.182 0.958 2.141 2.14 2.141s2.14-0.959 2.14-2.141v-3.403l6.073 0.006v3.397c0 1.182 0.958 2.141 2.14 2.141s2.14-0.959 2.14-2.141v-3.393l6.076 0.007v3.386c0 1.182 0.958 2.141 2.14 2.141s2.14-0.959 2.14-2.141V66l6.077 0.007v3.375c0 1.182 0.958 2.141 2.14 2.141s2.14-0.959 2.14-2.141v-3.37l21.55 0.022v3.348c0 1.182 0.958 2.141 2.14 2.141s2.14-0.959 2.14-2.141v-3.343l6.076 0.006v3.337c0 1.182 0.958 2.141 2.14 2.141s2.14-0.959 2.14-2.141V66.05l2.86 0.003h0.003c4.621 0 7.492-6.75 7.492-17.614C97.194 40.452 94.565 29.312 90.284 29.312zM50.978 39.72c0.398-0.185 0.798-0.37 1.197-0.554l9.577 22.578-3.769-0.004-8.96-21.115C49.683 40.319 50.335 40.017 50.978 39.72zM48.845 61.729c-0.108-0.017-0.217-0.033-0.331-0.033-0.111 0-0.217 0.017-0.324 0.032l-1.732-0.001-7.123-16.787c1.068-0.45 2.133-0.907 3.189-1.373l7.706 18.163L48.845 61.729zM10.861 55.769c0-2.284 1.608-4.725 6.12-4.725 4.565 0 10.048-1.442 15.714-3.49l6.011 14.165h-0.327c-0.074-0.008-0.146-0.022-0.222-0.022-0.074 0-0.145 0.015-0.217 0.021l-10.025-0.01c-0.038-0.002-0.074-0.012-0.113-0.012-0.038 0-0.073 0.009-0.11 0.011l-10.238-0.011c-0.001 0-0.002 0-0.004 0s-0.002 0-0.003 0h-0.348C12.165 61.696 10.861 57.819 10.861 55.769zM89.705 61.772l-20.2-0.021L58.683 36.239c2.554-1.086 4.608-1.834 5.538-1.834 0.973 0 3.737 1.959 5.754 3.391 3.759 2.665 8.02 5.686 11.933 5.686 5.159 0 7.328-5.142 8.622-8.333 1.094 2.56 2.386 7.46 2.386 13.291C92.915 58.29 90.358 61.77 89.705 61.772z" data-fill-palette-color="accent"></path></svg></g></svg></g></svg></g><defs></defs></svg><rect width="395.52" height="71.54597010983542" fill="none" stroke="none" visibility="hidden"></rect></g></svg></g></svg>