<svg xmlns="http://www.w3.org/2000/svg" version="1.1" xmlns:xlink="http://www.w3.org/1999/xlink" xmlns:svgjs="http://svgjs.dev/svgjs" width="128" height="128" viewBox="0 0 128 128"><g transform="matrix(0.8046875,0,0,0.8046875,12.760752631578946,40.51918629784202)"><svg viewBox="0 0 95 44" data-background-color="#31c48d" preserveAspectRatio="xMidYMid meet" height="59" width="128" xmlns="http://www.w3.org/2000/svg" xmlns:xlink="http://www.w3.org/1999/xlink"><g id="tight-bounds" transform="matrix(1,0,0,1,-0.24049999999999727,-0.2386139920102437)"><svg viewBox="0 0 95.481 44.477227984020494" height="44.477227984020494" width="95.481"><g><svg viewBox="0 0 95.481 44.477227984020494" height="44.477227984020494" width="95.481"><g><svg viewBox="0 0 95.481 44.477227984020494" height="44.477227984020494" width="95.481"><g id="textblocktransform"><svg viewBox="0 0 95.481 44.477227984020494" height="44.477227984020494" width="95.481" id="textblock"><g><svg viewBox="0 0 95.481 44.477227984020494" height="44.477227984020494" width="95.481"><g><svg viewBox="0 0 95.481 44.477227984020494" height="44.477227984020494" width="95.481"><g><svg xmlns="http://www.w3.org/2000/svg" xmlns:xlink="http://www.w3.org/1999/xlink" version="1.1" x="0" y="0" viewBox="6.5810000000000155 29.312 90.616 42.21100000000001" enable-background="new 0 0 100 100" xml:space="preserve" height="44.477227984020494" width="95.481" class="icon-icon-0" data-fill-palette-color="accent" id="icon-0"><path fill="#a9f700" d="M90.284 29.312c-2.006 0-2.771 1.886-3.655 4.07-1.244 3.067-2.54 5.82-4.722 5.82-2.551 0-6.381-2.715-9.457-4.897-3.293-2.335-5.893-4.179-8.229-4.179-2.588 0-7.169 2.063-15.042 5.71-9.955 4.612-23.589 10.928-32.198 10.928-7.146 0-10.4 4.667-10.4 9.004 0 4.495 3.051 9.233 8.729 10.065v3.548c0 1.182 0.958 2.141 2.14 2.141s2.14-0.959 2.14-2.141v-3.403l6.073 0.006v3.397c0 1.182 0.958 2.141 2.14 2.141s2.14-0.959 2.14-2.141v-3.393l6.076 0.007v3.386c0 1.182 0.958 2.141 2.14 2.141s2.14-0.959 2.14-2.141V66l6.077 0.007v3.375c0 1.182 0.958 2.141 2.14 2.141s2.14-0.959 2.14-2.141v-3.37l21.55 0.022v3.348c0 1.182 0.958 2.141 2.14 2.141s2.14-0.959 2.14-2.141v-3.343l6.076 0.006v3.337c0 1.182 0.958 2.141 2.14 2.141s2.14-0.959 2.14-2.141V66.05l2.86 0.003h0.003c4.621 0 7.492-6.75 7.492-17.614C97.194 40.452 94.565 29.312 90.284 29.312zM50.978 39.72c0.398-0.185 0.798-0.37 1.197-0.554l9.577 22.578-3.769-0.004-8.96-21.115C49.683 40.319 50.335 40.017 50.978 39.72zM48.845 61.729c-0.108-0.017-0.217-0.033-0.331-0.033-0.111 0-0.217 0.017-0.324 0.032l-1.732-0.001-7.123-16.787c1.068-0.45 2.133-0.907 3.189-1.373l7.706 18.163L48.845 61.729zM10.861 55.769c0-2.284 1.608-4.725 6.12-4.725 4.565 0 10.048-1.442 15.714-3.49l6.011 14.165h-0.327c-0.074-0.008-0.146-0.022-0.222-0.022-0.074 0-0.145 0.015-0.217 0.021l-10.025-0.01c-0.038-0.002-0.074-0.012-0.113-0.012-0.038 0-0.073 0.009-0.11 0.011l-10.238-0.011c-0.001 0-0.002 0-0.004 0s-0.002 0-0.003 0h-0.348C12.165 61.696 10.861 57.819 10.861 55.769zM89.705 61.772l-20.2-0.021L58.683 36.239c2.554-1.086 4.608-1.834 5.538-1.834 0.973 0 3.737 1.959 5.754 3.391 3.759 2.665 8.02 5.686 11.933 5.686 5.159 0 7.328-5.142 8.622-8.333 1.094 2.56 2.386 7.46 2.386 13.291C92.915 58.29 90.358 61.77 89.705 61.772z" data-fill-palette-color="accent"></path></svg></g></svg></g></svg></g></svg></g></svg></g></svg></g><defs></defs></svg><rect width="95.481" height="44.477227984020494" fill="none" stroke="none" visibility="hidden"></rect></g></svg></g></svg>